<?xml version="1.0" encoding="utf-8" standalone="no"?>
<!DOCTYPE svg PUBLIC "-//W3C//DTD SVG 1.1//EN"
  "http://www.w3.org/Graphics/SVG/1.1/DTD/svg11.dtd">
<!-- Created with matplotlib (https://matplotlib.org/) -->
<svg height="504pt" version="1.1" viewBox="0 0 720 504" width="720pt" xmlns="http://www.w3.org/2000/svg" xmlns:xlink="http://www.w3.org/1999/xlink">
 <defs>
  <style type="text/css">
*{stroke-linecap:butt;stroke-linejoin:round;}
  </style>
 </defs>
 <g id="figure_1">
  <g id="patch_1">
   <path d="M 0 504 
L 720 504 
L 720 0 
L 0 0 
z
" style="fill:#ffffff;"/>
  </g>
  <g id="axes_1">
   <g id="patch_2">
    <path d="M 90 441 
L 648 441 
L 648 60.48 
L 90 60.48 
z
" style="fill:#e5e5e5;"/>
   </g>
   <g id="matplotlib.axis_1">
    <g id="xtick_1">
     <g id="text_1">
      <!-- 0400 -->
      <defs>
       <path d="M 4.15625 35.296875 
Q 4.15625 48 6.765625 55.734375 
Q 9.375 63.484375 14.515625 67.671875 
Q 19.671875 71.875 27.484375 71.875 
Q 33.25 71.875 37.59375 69.546875 
Q 41.9375 67.234375 44.765625 62.859375 
Q 47.609375 58.5 49.21875 52.21875 
Q 50.828125 45.953125 50.828125 35.296875 
Q 50.828125 22.703125 48.234375 14.96875 
Q 45.65625 7.234375 40.5 3 
Q 35.359375 -1.21875 27.484375 -1.21875 
Q 17.140625 -1.21875 11.234375 6.203125 
Q 4.15625 15.140625 4.15625 35.296875 
z
M 13.1875 35.296875 
Q 13.1875 17.671875 17.3125 11.828125 
Q 21.4375 6 27.484375 6 
Q 33.546875 6 37.671875 11.859375 
Q 41.796875 17.71875 41.796875 35.296875 
Q 41.796875 52.984375 37.671875 58.78125 
Q 33.546875 64.59375 27.390625 64.59375 
Q 21.34375 64.59375 17.71875 59.46875 
Q 13.1875 52.9375 13.1875 35.296875 
z
" id="ArialMT-48"/>
       <path d="M 32.328125 0 
L 32.328125 17.140625 
L 1.265625 17.140625 
L 1.265625 25.203125 
L 33.9375 71.578125 
L 41.109375 71.578125 
L 41.109375 25.203125 
L 50.78125 25.203125 
L 50.78125 17.140625 
L 41.109375 17.140625 
L 41.109375 0 
z
M 32.328125 25.203125 
L 32.328125 57.46875 
L 9.90625 25.203125 
z
" id="ArialMT-52"/>
      </defs>
      <g style="fill:#555555;" transform="translate(128.49321 458.373594)scale(0.11 -0.11)">
       <use xlink:href="#ArialMT-48"/>
       <use x="55.615234" xlink:href="#ArialMT-52"/>
       <use x="111.230469" xlink:href="#ArialMT-48"/>
       <use x="166.845703" xlink:href="#ArialMT-48"/>
      </g>
     </g>
    </g>
    <g id="xtick_2">
     <g id="text_2">
      <!-- 0800 -->
      <defs>
       <path d="M 17.671875 38.8125 
Q 12.203125 40.828125 9.5625 44.53125 
Q 6.9375 48.25 6.9375 53.421875 
Q 6.9375 61.234375 12.546875 66.546875 
Q 18.171875 71.875 27.484375 71.875 
Q 36.859375 71.875 42.578125 66.421875 
Q 48.296875 60.984375 48.296875 53.171875 
Q 48.296875 48.1875 45.671875 44.5 
Q 43.0625 40.828125 37.75 38.8125 
Q 44.34375 36.671875 47.78125 31.875 
Q 51.21875 27.09375 51.21875 20.453125 
Q 51.21875 11.28125 44.71875 5.03125 
Q 38.234375 -1.21875 27.640625 -1.21875 
Q 17.046875 -1.21875 10.546875 5.046875 
Q 4.046875 11.328125 4.046875 20.703125 
Q 4.046875 27.6875 7.59375 32.390625 
Q 11.140625 37.109375 17.671875 38.8125 
z
M 15.921875 53.71875 
Q 15.921875 48.640625 19.1875 45.40625 
Q 22.46875 42.1875 27.6875 42.1875 
Q 32.765625 42.1875 36.015625 45.375 
Q 39.265625 48.578125 39.265625 53.21875 
Q 39.265625 58.0625 35.90625 61.359375 
Q 32.5625 64.65625 27.59375 64.65625 
Q 22.5625 64.65625 19.234375 61.421875 
Q 15.921875 58.203125 15.921875 53.71875 
z
M 13.09375 20.65625 
Q 13.09375 16.890625 14.875 13.375 
Q 16.65625 9.859375 20.171875 7.921875 
Q 23.6875 6 27.734375 6 
Q 34.03125 6 38.125 10.046875 
Q 42.234375 14.109375 42.234375 20.359375 
Q 42.234375 26.703125 38.015625 30.859375 
Q 33.796875 35.015625 27.4375 35.015625 
Q 21.234375 35.015625 17.15625 30.90625 
Q 13.09375 26.8125 13.09375 20.65625 
z
" id="ArialMT-56"/>
      </defs>
      <g style="fill:#555555;" transform="translate(229.947756 458.373594)scale(0.11 -0.11)">
       <use xlink:href="#ArialMT-48"/>
       <use x="55.615234" xlink:href="#ArialMT-56"/>
       <use x="111.230469" xlink:href="#ArialMT-48"/>
       <use x="166.845703" xlink:href="#ArialMT-48"/>
      </g>
     </g>
    </g>
    <g id="xtick_3">
     <g id="text_3">
      <!-- 1200 -->
      <defs>
       <path d="M 37.25 0 
L 28.46875 0 
L 28.46875 56 
Q 25.296875 52.984375 20.140625 49.953125 
Q 14.984375 46.921875 10.890625 45.40625 
L 10.890625 53.90625 
Q 18.265625 57.375 23.78125 62.296875 
Q 29.296875 67.234375 31.59375 71.875 
L 37.25 71.875 
z
" id="ArialMT-49"/>
       <path d="M 50.34375 8.453125 
L 50.34375 0 
L 3.03125 0 
Q 2.9375 3.171875 4.046875 6.109375 
Q 5.859375 10.9375 9.828125 15.625 
Q 13.8125 20.3125 21.34375 26.46875 
Q 33.015625 36.03125 37.109375 41.625 
Q 41.21875 47.21875 41.21875 52.203125 
Q 41.21875 57.421875 37.46875 61 
Q 33.734375 64.59375 27.734375 64.59375 
Q 21.390625 64.59375 17.578125 60.78125 
Q 13.765625 56.984375 13.71875 50.25 
L 4.6875 51.171875 
Q 5.609375 61.28125 11.65625 66.578125 
Q 17.71875 71.875 27.9375 71.875 
Q 38.234375 71.875 44.234375 66.15625 
Q 50.25 60.453125 50.25 52 
Q 50.25 47.703125 48.484375 43.546875 
Q 46.734375 39.40625 42.65625 34.8125 
Q 38.578125 30.21875 29.109375 22.21875 
Q 21.1875 15.578125 18.9375 13.203125 
Q 16.703125 10.84375 15.234375 8.453125 
z
" id="ArialMT-50"/>
      </defs>
      <g style="fill:#555555;" transform="translate(331.402301 458.373594)scale(0.11 -0.11)">
       <use xlink:href="#ArialMT-49"/>
       <use x="55.615234" xlink:href="#ArialMT-50"/>
       <use x="111.230469" xlink:href="#ArialMT-48"/>
       <use x="166.845703" xlink:href="#ArialMT-48"/>
      </g>
     </g>
    </g>
    <g id="xtick_4">
     <g id="text_4">
      <!-- 1600 -->
      <defs>
       <path d="M 49.75 54.046875 
L 41.015625 53.375 
Q 39.84375 58.546875 37.703125 60.890625 
Q 34.125 64.65625 28.90625 64.65625 
Q 24.703125 64.65625 21.53125 62.3125 
Q 17.390625 59.28125 14.984375 53.46875 
Q 12.59375 47.65625 12.5 36.921875 
Q 15.671875 41.75 20.265625 44.09375 
Q 24.859375 46.4375 29.890625 46.4375 
Q 38.671875 46.4375 44.84375 39.96875 
Q 51.03125 33.5 51.03125 23.25 
Q 51.03125 16.5 48.125 10.71875 
Q 45.21875 4.9375 40.140625 1.859375 
Q 35.0625 -1.21875 28.609375 -1.21875 
Q 17.625 -1.21875 10.6875 6.859375 
Q 3.765625 14.9375 3.765625 33.5 
Q 3.765625 54.25 11.421875 63.671875 
Q 18.109375 71.875 29.4375 71.875 
Q 37.890625 71.875 43.28125 67.140625 
Q 48.6875 62.40625 49.75 54.046875 
z
M 13.875 23.1875 
Q 13.875 18.65625 15.796875 14.5 
Q 17.71875 10.359375 21.1875 8.171875 
Q 24.65625 6 28.46875 6 
Q 34.03125 6 38.03125 10.484375 
Q 42.046875 14.984375 42.046875 22.703125 
Q 42.046875 30.125 38.078125 34.390625 
Q 34.125 38.671875 28.125 38.671875 
Q 22.171875 38.671875 18.015625 34.390625 
Q 13.875 30.125 13.875 23.1875 
z
" id="ArialMT-54"/>
      </defs>
      <g style="fill:#555555;" transform="translate(432.856847 458.373594)scale(0.11 -0.11)">
       <use xlink:href="#ArialMT-49"/>
       <use x="55.615234" xlink:href="#ArialMT-54"/>
       <use x="111.230469" xlink:href="#ArialMT-48"/>
       <use x="166.845703" xlink:href="#ArialMT-48"/>
      </g>
     </g>
    </g>
    <g id="xtick_5">
     <g id="text_5">
      <!-- 2000 -->
      <g style="fill:#555555;" transform="translate(534.311392 458.373594)scale(0.11 -0.11)">
       <use xlink:href="#ArialMT-50"/>
       <use x="55.615234" xlink:href="#ArialMT-48"/>
       <use x="111.230469" xlink:href="#ArialMT-48"/>
       <use x="166.845703" xlink:href="#ArialMT-48"/>
      </g>
     </g>
    </g>
    <g id="xtick_6"/>
    <g id="text_6">
     <!-- Hour -->
     <defs>
      <path d="M 7.328125 0 
L 7.328125 71.578125 
L 21.78125 71.578125 
L 21.78125 43.40625 
L 50.09375 43.40625 
L 50.09375 71.578125 
L 64.546875 71.578125 
L 64.546875 0 
L 50.09375 0 
L 50.09375 31.296875 
L 21.78125 31.296875 
L 21.78125 0 
z
" id="Arial-BoldMT-72"/>
      <path d="M 4 26.65625 
Q 4 33.5 7.375 39.890625 
Q 10.75 46.296875 16.921875 49.65625 
Q 23.09375 53.03125 30.71875 53.03125 
Q 42.484375 53.03125 50 45.390625 
Q 57.515625 37.75 57.515625 26.078125 
Q 57.515625 14.3125 49.921875 6.5625 
Q 42.328125 -1.171875 30.8125 -1.171875 
Q 23.6875 -1.171875 17.21875 2.046875 
Q 10.75 5.28125 7.375 11.5 
Q 4 17.71875 4 26.65625 
z
M 18.0625 25.921875 
Q 18.0625 18.21875 21.71875 14.109375 
Q 25.390625 10.015625 30.765625 10.015625 
Q 36.140625 10.015625 39.765625 14.109375 
Q 43.40625 18.21875 43.40625 26.03125 
Q 43.40625 33.640625 39.765625 37.734375 
Q 36.140625 41.84375 30.765625 41.84375 
Q 25.390625 41.84375 21.71875 37.734375 
Q 18.0625 33.640625 18.0625 25.921875 
z
" id="Arial-BoldMT-111"/>
      <path d="M 41.3125 0 
L 41.3125 7.765625 
Q 38.484375 3.609375 33.859375 1.21875 
Q 29.25 -1.171875 24.125 -1.171875 
Q 18.890625 -1.171875 14.734375 1.125 
Q 10.59375 3.421875 8.734375 7.5625 
Q 6.890625 11.71875 6.890625 19.046875 
L 6.890625 51.859375 
L 20.609375 51.859375 
L 20.609375 28.03125 
Q 20.609375 17.09375 21.359375 14.625 
Q 22.125 12.15625 24.125 10.71875 
Q 26.125 9.28125 29.203125 9.28125 
Q 32.71875 9.28125 35.5 11.203125 
Q 38.28125 13.140625 39.296875 15.984375 
Q 40.328125 18.84375 40.328125 29.984375 
L 40.328125 51.859375 
L 54.046875 51.859375 
L 54.046875 0 
z
" id="Arial-BoldMT-117"/>
      <path d="M 20.3125 0 
L 6.59375 0 
L 6.59375 51.859375 
L 19.34375 51.859375 
L 19.34375 44.484375 
Q 22.609375 49.703125 25.21875 51.359375 
Q 27.828125 53.03125 31.15625 53.03125 
Q 35.84375 53.03125 40.1875 50.4375 
L 35.9375 38.484375 
Q 32.46875 40.71875 29.5 40.71875 
Q 26.609375 40.71875 24.609375 39.125 
Q 22.609375 37.546875 21.453125 33.390625 
Q 20.3125 29.25 20.3125 16.015625 
z
" id="Arial-BoldMT-114"/>
     </defs>
     <g style="fill:#555555;" transform="translate(350.33625 476.012344)scale(0.16 -0.16)">
      <use xlink:href="#Arial-BoldMT-72"/>
      <use x="72.216797" xlink:href="#Arial-BoldMT-111"/>
      <use x="133.300781" xlink:href="#Arial-BoldMT-117"/>
      <use x="194.384766" xlink:href="#Arial-BoldMT-114"/>
     </g>
    </g>
   </g>
   <g id="matplotlib.axis_2">
    <g id="ytick_1">
     <g id="line2d_1">
      <path clip-path="url(#pa56f00cd36)" d="M 90 441 
L 648 441 
" style="fill:none;stroke:#ffffff;stroke-linecap:round;"/>
     </g>
     <g id="text_7">
      <!-- 0 -->
      <g style="fill:#555555;" transform="translate(74.382969 444.936797)scale(0.11 -0.11)">
       <use xlink:href="#ArialMT-48"/>
      </g>
     </g>
    </g>
    <g id="ytick_2">
     <g id="line2d_2">
      <path clip-path="url(#pa56f00cd36)" d="M 90 380.555923 
L 648 380.555923 
" style="fill:none;stroke:#ffffff;stroke-linecap:round;"/>
     </g>
     <g id="text_8">
      <!-- 50,000,000 -->
      <defs>
       <path d="M 4.15625 18.75 
L 13.375 19.53125 
Q 14.40625 12.796875 18.140625 9.390625 
Q 21.875 6 27.15625 6 
Q 33.5 6 37.890625 10.78125 
Q 42.28125 15.578125 42.28125 23.484375 
Q 42.28125 31 38.0625 35.34375 
Q 33.84375 39.703125 27 39.703125 
Q 22.75 39.703125 19.328125 37.765625 
Q 15.921875 35.84375 13.96875 32.765625 
L 5.71875 33.84375 
L 12.640625 70.609375 
L 48.25 70.609375 
L 48.25 62.203125 
L 19.671875 62.203125 
L 15.828125 42.96875 
Q 22.265625 47.46875 29.34375 47.46875 
Q 38.71875 47.46875 45.15625 40.96875 
Q 51.609375 34.46875 51.609375 24.265625 
Q 51.609375 14.546875 45.953125 7.46875 
Q 39.0625 -1.21875 27.15625 -1.21875 
Q 17.390625 -1.21875 11.203125 4.25 
Q 5.03125 9.71875 4.15625 18.75 
z
" id="ArialMT-53"/>
       <path d="M 8.890625 0 
L 8.890625 10.015625 
L 18.890625 10.015625 
L 18.890625 0 
Q 18.890625 -5.515625 16.9375 -8.90625 
Q 14.984375 -12.3125 10.75 -14.15625 
L 8.296875 -10.40625 
Q 11.078125 -9.1875 12.390625 -6.8125 
Q 13.71875 -4.4375 13.875 0 
z
" id="ArialMT-44"/>
      </defs>
      <g style="fill:#555555;" transform="translate(25.451875 384.492719)scale(0.11 -0.11)">
       <use xlink:href="#ArialMT-53"/>
       <use x="55.615234" xlink:href="#ArialMT-48"/>
       <use x="111.230469" xlink:href="#ArialMT-44"/>
       <use x="139.013672" xlink:href="#ArialMT-48"/>
       <use x="194.628906" xlink:href="#ArialMT-48"/>
       <use x="250.244141" xlink:href="#ArialMT-48"/>
       <use x="305.859375" xlink:href="#ArialMT-44"/>
       <use x="333.642578" xlink:href="#ArialMT-48"/>
       <use x="389.257812" xlink:href="#ArialMT-48"/>
       <use x="444.873047" xlink:href="#ArialMT-48"/>
      </g>
     </g>
    </g>
    <g id="ytick_3">
     <g id="line2d_3">
      <path clip-path="url(#pa56f00cd36)" d="M 90 320.111845 
L 648 320.111845 
" style="fill:none;stroke:#ffffff;stroke-linecap:round;"/>
     </g>
     <g id="text_9">
      <!-- 100,000,000 -->
      <g style="fill:#555555;" transform="translate(19.334844 324.048642)scale(0.11 -0.11)">
       <use xlink:href="#ArialMT-49"/>
       <use x="55.615234" xlink:href="#ArialMT-48"/>
       <use x="111.230469" xlink:href="#ArialMT-48"/>
       <use x="166.845703" xlink:href="#ArialMT-44"/>
       <use x="194.628906" xlink:href="#ArialMT-48"/>
       <use x="250.244141" xlink:href="#ArialMT-48"/>
       <use x="305.859375" xlink:href="#ArialMT-48"/>
       <use x="361.474609" xlink:href="#ArialMT-44"/>
       <use x="389.257812" xlink:href="#ArialMT-48"/>
       <use x="444.873047" xlink:href="#ArialMT-48"/>
       <use x="500.488281" xlink:href="#ArialMT-48"/>
      </g>
     </g>
    </g>
    <g id="ytick_4">
     <g id="line2d_4">
      <path clip-path="url(#pa56f00cd36)" d="M 90 259.667768 
L 648 259.667768 
" style="fill:none;stroke:#ffffff;stroke-linecap:round;"/>
     </g>
     <g id="text_10">
      <!-- 150,000,000 -->
      <g style="fill:#555555;" transform="translate(19.334844 263.604565)scale(0.11 -0.11)">
       <use xlink:href="#ArialMT-49"/>
       <use x="55.615234" xlink:href="#ArialMT-53"/>
       <use x="111.230469" xlink:href="#ArialMT-48"/>
       <use x="166.845703" xlink:href="#ArialMT-44"/>
       <use x="194.628906" xlink:href="#ArialMT-48"/>
       <use x="250.244141" xlink:href="#ArialMT-48"/>
       <use x="305.859375" xlink:href="#ArialMT-48"/>
       <use x="361.474609" xlink:href="#ArialMT-44"/>
       <use x="389.257812" xlink:href="#ArialMT-48"/>
       <use x="444.873047" xlink:href="#ArialMT-48"/>
       <use x="500.488281" xlink:href="#ArialMT-48"/>
      </g>
     </g>
    </g>
    <g id="ytick_5">
     <g id="line2d_5">
      <path clip-path="url(#pa56f00cd36)" d="M 90 199.22369 
L 648 199.22369 
" style="fill:none;stroke:#ffffff;stroke-linecap:round;"/>
     </g>
     <g id="text_11">
      <!-- 200,000,000 -->
      <g style="fill:#555555;" transform="translate(19.334844 203.160487)scale(0.11 -0.11)">
       <use xlink:href="#ArialMT-50"/>
       <use x="55.615234" xlink:href="#ArialMT-48"/>
       <use x="111.230469" xlink:href="#ArialMT-48"/>
       <use x="166.845703" xlink:href="#ArialMT-44"/>
       <use x="194.628906" xlink:href="#ArialMT-48"/>
       <use x="250.244141" xlink:href="#ArialMT-48"/>
       <use x="305.859375" xlink:href="#ArialMT-48"/>
       <use x="361.474609" xlink:href="#ArialMT-44"/>
       <use x="389.257812" xlink:href="#ArialMT-48"/>
       <use x="444.873047" xlink:href="#ArialMT-48"/>
       <use x="500.488281" xlink:href="#ArialMT-48"/>
      </g>
     </g>
    </g>
    <g id="ytick_6">
     <g id="line2d_6">
      <path clip-path="url(#pa56f00cd36)" d="M 90 138.779613 
L 648 138.779613 
" style="fill:none;stroke:#ffffff;stroke-linecap:round;"/>
     </g>
     <g id="text_12">
      <!-- 250,000,000 -->
      <g style="fill:#555555;" transform="translate(19.334844 142.71641)scale(0.11 -0.11)">
       <use xlink:href="#ArialMT-50"/>
       <use x="55.615234" xlink:href="#ArialMT-53"/>
       <use x="111.230469" xlink:href="#ArialMT-48"/>
       <use x="166.845703" xlink:href="#ArialMT-44"/>
       <use x="194.628906" xlink:href="#ArialMT-48"/>
       <use x="250.244141" xlink:href="#ArialMT-48"/>
       <use x="305.859375" xlink:href="#ArialMT-48"/>
       <use x="361.474609" xlink:href="#ArialMT-44"/>
       <use x="389.257812" xlink:href="#ArialMT-48"/>
       <use x="444.873047" xlink:href="#ArialMT-48"/>
       <use x="500.488281" xlink:href="#ArialMT-48"/>
      </g>
     </g>
    </g>
    <g id="ytick_7">
     <g id="line2d_7">
      <path clip-path="url(#pa56f00cd36)" d="M 90 78.335535 
L 648 78.335535 
" style="fill:none;stroke:#ffffff;stroke-linecap:round;"/>
     </g>
     <g id="text_13">
      <!-- 300,000,000 -->
      <defs>
       <path d="M 4.203125 18.890625 
L 12.984375 20.0625 
Q 14.5 12.59375 18.140625 9.296875 
Q 21.78125 6 27 6 
Q 33.203125 6 37.46875 10.296875 
Q 41.75 14.59375 41.75 20.953125 
Q 41.75 27 37.796875 30.921875 
Q 33.84375 34.859375 27.734375 34.859375 
Q 25.25 34.859375 21.53125 33.890625 
L 22.515625 41.609375 
Q 23.390625 41.5 23.921875 41.5 
Q 29.546875 41.5 34.03125 44.421875 
Q 38.53125 47.359375 38.53125 53.46875 
Q 38.53125 58.296875 35.25 61.46875 
Q 31.984375 64.65625 26.8125 64.65625 
Q 21.6875 64.65625 18.265625 61.421875 
Q 14.84375 58.203125 13.875 51.765625 
L 5.078125 53.328125 
Q 6.6875 62.15625 12.390625 67.015625 
Q 18.109375 71.875 26.609375 71.875 
Q 32.46875 71.875 37.390625 69.359375 
Q 42.328125 66.84375 44.9375 62.5 
Q 47.5625 58.15625 47.5625 53.265625 
Q 47.5625 48.640625 45.0625 44.828125 
Q 42.578125 41.015625 37.703125 38.765625 
Q 44.046875 37.3125 47.5625 32.6875 
Q 51.078125 28.078125 51.078125 21.140625 
Q 51.078125 11.765625 44.234375 5.25 
Q 37.40625 -1.265625 26.953125 -1.265625 
Q 17.53125 -1.265625 11.296875 4.34375 
Q 5.078125 9.96875 4.203125 18.890625 
z
" id="ArialMT-51"/>
      </defs>
      <g style="fill:#555555;" transform="translate(19.334844 82.272332)scale(0.11 -0.11)">
       <use xlink:href="#ArialMT-51"/>
       <use x="55.615234" xlink:href="#ArialMT-48"/>
       <use x="111.230469" xlink:href="#ArialMT-48"/>
       <use x="166.845703" xlink:href="#ArialMT-44"/>
       <use x="194.628906" xlink:href="#ArialMT-48"/>
       <use x="250.244141" xlink:href="#ArialMT-48"/>
       <use x="305.859375" xlink:href="#ArialMT-48"/>
       <use x="361.474609" xlink:href="#ArialMT-44"/>
       <use x="389.257812" xlink:href="#ArialMT-48"/>
       <use x="444.873047" xlink:href="#ArialMT-48"/>
       <use x="500.488281" xlink:href="#ArialMT-48"/>
      </g>
     </g>
    </g>
    <g id="text_14">
     <!-- Amount of Traffic -->
     <defs>
      <path d="M 71.828125 0 
L 56.109375 0 
L 49.859375 16.265625 
L 21.234375 16.265625 
L 15.328125 0 
L 0 0 
L 27.875 71.578125 
L 43.171875 71.578125 
z
M 45.21875 28.328125 
L 35.359375 54.890625 
L 25.6875 28.328125 
z
" id="Arial-BoldMT-65"/>
      <path d="M 6.15625 51.859375 
L 18.796875 51.859375 
L 18.796875 44.78125 
Q 25.59375 53.03125 34.96875 53.03125 
Q 39.9375 53.03125 43.59375 50.96875 
Q 47.265625 48.921875 49.609375 44.78125 
Q 53.03125 48.921875 56.984375 50.96875 
Q 60.9375 53.03125 65.4375 53.03125 
Q 71.140625 53.03125 75.09375 50.703125 
Q 79.046875 48.390625 81 43.890625 
Q 82.421875 40.578125 82.421875 33.15625 
L 82.421875 0 
L 68.703125 0 
L 68.703125 29.640625 
Q 68.703125 37.359375 67.28125 39.59375 
Q 65.375 42.53125 61.421875 42.53125 
Q 58.546875 42.53125 56 40.765625 
Q 53.46875 39.015625 52.34375 35.625 
Q 51.21875 32.234375 51.21875 24.90625 
L 51.21875 0 
L 37.5 0 
L 37.5 28.421875 
Q 37.5 35.984375 36.765625 38.171875 
Q 36.03125 40.375 34.484375 41.453125 
Q 32.953125 42.53125 30.328125 42.53125 
Q 27.15625 42.53125 24.609375 40.8125 
Q 22.078125 39.109375 20.96875 35.890625 
Q 19.875 32.671875 19.875 25.203125 
L 19.875 0 
L 6.15625 0 
z
" id="Arial-BoldMT-109"/>
      <path d="M 54.34375 0 
L 40.625 0 
L 40.625 26.46875 
Q 40.625 34.859375 39.75 37.328125 
Q 38.875 39.796875 36.890625 41.15625 
Q 34.90625 42.53125 32.125 42.53125 
Q 28.5625 42.53125 25.734375 40.578125 
Q 22.90625 38.625 21.84375 35.390625 
Q 20.796875 32.171875 20.796875 23.484375 
L 20.796875 0 
L 7.078125 0 
L 7.078125 51.859375 
L 19.828125 51.859375 
L 19.828125 44.234375 
Q 26.609375 53.03125 36.921875 53.03125 
Q 41.453125 53.03125 45.203125 51.390625 
Q 48.96875 49.75 50.890625 47.203125 
Q 52.828125 44.671875 53.578125 41.453125 
Q 54.34375 38.234375 54.34375 32.234375 
z
" id="Arial-BoldMT-110"/>
      <path d="M 30.953125 51.859375 
L 30.953125 40.921875 
L 21.578125 40.921875 
L 21.578125 20.015625 
Q 21.578125 13.671875 21.84375 12.625 
Q 22.125 11.578125 23.078125 10.890625 
Q 24.03125 10.203125 25.390625 10.203125 
Q 27.296875 10.203125 30.90625 11.53125 
L 32.078125 0.875 
Q 27.296875 -1.171875 21.234375 -1.171875 
Q 17.53125 -1.171875 14.546875 0.0625 
Q 11.578125 1.3125 10.1875 3.296875 
Q 8.796875 5.28125 8.25 8.640625 
Q 7.8125 11.03125 7.8125 18.3125 
L 7.8125 40.921875 
L 1.515625 40.921875 
L 1.515625 51.859375 
L 7.8125 51.859375 
L 7.8125 62.15625 
L 21.578125 70.171875 
L 21.578125 51.859375 
z
" id="Arial-BoldMT-116"/>
      <path id="Arial-BoldMT-32"/>
      <path d="M 1.171875 51.859375 
L 8.796875 51.859375 
L 8.796875 55.765625 
Q 8.796875 62.3125 10.1875 65.53125 
Q 11.578125 68.75 15.3125 70.765625 
Q 19.046875 72.796875 24.75 72.796875 
Q 30.609375 72.796875 36.234375 71.046875 
L 34.375 61.46875 
Q 31.109375 62.25 28.078125 62.25 
Q 25.09375 62.25 23.796875 60.859375 
Q 22.515625 59.46875 22.515625 55.515625 
L 22.515625 51.859375 
L 32.765625 51.859375 
L 32.765625 41.0625 
L 22.515625 41.0625 
L 22.515625 0 
L 8.796875 0 
L 8.796875 41.0625 
L 1.171875 41.0625 
z
" id="Arial-BoldMT-102"/>
      <path d="M 23.390625 0 
L 23.390625 59.46875 
L 2.15625 59.46875 
L 2.15625 71.578125 
L 59.03125 71.578125 
L 59.03125 59.46875 
L 37.84375 59.46875 
L 37.84375 0 
z
" id="Arial-BoldMT-84"/>
      <path d="M 17.4375 36.03125 
L 4.984375 38.28125 
Q 7.078125 45.796875 12.203125 49.40625 
Q 17.328125 53.03125 27.4375 53.03125 
Q 36.625 53.03125 41.109375 50.859375 
Q 45.609375 48.6875 47.4375 45.34375 
Q 49.265625 42 49.265625 33.0625 
L 49.125 17.046875 
Q 49.125 10.203125 49.78125 6.953125 
Q 50.4375 3.71875 52.25 0 
L 38.671875 0 
Q 38.140625 1.375 37.359375 4.046875 
Q 37.015625 5.28125 36.859375 5.671875 
Q 33.34375 2.25 29.34375 0.53125 
Q 25.34375 -1.171875 20.796875 -1.171875 
Q 12.796875 -1.171875 8.171875 3.171875 
Q 3.5625 7.515625 3.5625 14.15625 
Q 3.5625 18.5625 5.65625 22 
Q 7.765625 25.4375 11.546875 27.265625 
Q 15.328125 29.109375 22.46875 30.46875 
Q 32.078125 32.28125 35.796875 33.84375 
L 35.796875 35.203125 
Q 35.796875 39.15625 33.84375 40.84375 
Q 31.890625 42.53125 26.46875 42.53125 
Q 22.796875 42.53125 20.75 41.09375 
Q 18.703125 39.65625 17.4375 36.03125 
z
M 35.796875 24.90625 
Q 33.15625 24.03125 27.4375 22.796875 
Q 21.734375 21.578125 19.96875 20.40625 
Q 17.28125 18.5 17.28125 15.578125 
Q 17.28125 12.703125 19.421875 10.59375 
Q 21.578125 8.5 24.90625 8.5 
Q 28.609375 8.5 31.984375 10.9375 
Q 34.46875 12.796875 35.25 15.484375 
Q 35.796875 17.234375 35.796875 22.171875 
z
" id="Arial-BoldMT-97"/>
      <path d="M 7.171875 58.890625 
L 7.171875 71.578125 
L 20.90625 71.578125 
L 20.90625 58.890625 
z
M 7.171875 0 
L 7.171875 51.859375 
L 20.90625 51.859375 
L 20.90625 0 
z
" id="Arial-BoldMT-105"/>
      <path d="M 52.390625 36.53125 
L 38.875 34.078125 
Q 38.1875 38.140625 35.765625 40.1875 
Q 33.34375 42.234375 29.5 42.234375 
Q 24.359375 42.234375 21.3125 38.6875 
Q 18.265625 35.15625 18.265625 26.859375 
Q 18.265625 17.625 21.359375 13.8125 
Q 24.46875 10.015625 29.6875 10.015625 
Q 33.59375 10.015625 36.078125 12.234375 
Q 38.578125 14.453125 39.59375 19.875 
L 53.078125 17.578125 
Q 50.984375 8.296875 45.015625 3.5625 
Q 39.0625 -1.171875 29.046875 -1.171875 
Q 17.671875 -1.171875 10.90625 6 
Q 4.15625 13.1875 4.15625 25.875 
Q 4.15625 38.71875 10.9375 45.875 
Q 17.71875 53.03125 29.296875 53.03125 
Q 38.765625 53.03125 44.359375 48.953125 
Q 49.953125 44.875 52.390625 36.53125 
z
" id="Arial-BoldMT-99"/>
     </defs>
     <g style="fill:#555555;" transform="translate(12.572031 309.05875)rotate(-90)scale(0.14 -0.14)">
      <use xlink:href="#Arial-BoldMT-65"/>
      <use x="72.216797" xlink:href="#Arial-BoldMT-109"/>
      <use x="161.132812" xlink:href="#Arial-BoldMT-111"/>
      <use x="222.216797" xlink:href="#Arial-BoldMT-117"/>
      <use x="283.300781" xlink:href="#Arial-BoldMT-110"/>
      <use x="344.384766" xlink:href="#Arial-BoldMT-116"/>
      <use x="377.685547" xlink:href="#Arial-BoldMT-32"/>
      <use x="405.46875" xlink:href="#Arial-BoldMT-111"/>
      <use x="466.552734" xlink:href="#Arial-BoldMT-102"/>
      <use x="499.853516" xlink:href="#Arial-BoldMT-32"/>
      <use x="527.636719" xlink:href="#Arial-BoldMT-84"/>
      <use x="588.642578" xlink:href="#Arial-BoldMT-114"/>
      <use x="627.558594" xlink:href="#Arial-BoldMT-97"/>
      <use x="683.173828" xlink:href="#Arial-BoldMT-102"/>
      <use x="716.474609" xlink:href="#Arial-BoldMT-102"/>
      <use x="749.775391" xlink:href="#Arial-BoldMT-105"/>
      <use x="777.558594" xlink:href="#Arial-BoldMT-99"/>
     </g>
    </g>
   </g>
   <g id="patch_3">
    <path clip-path="url(#pa56f00cd36)" d="M 100.145455 441 
L 181.309091 441 
L 181.309091 251.188194 
L 100.145455 251.188194 
z
" style="fill:#997cc9;opacity:0.87;stroke:#eeeeee;stroke-linejoin:miter;stroke-width:0.5;"/>
   </g>
   <g id="patch_4">
    <path clip-path="url(#pa56f00cd36)" d="M 201.6 441 
L 282.763636 441 
L 282.763636 104.894251 
L 201.6 104.894251 
z
" style="fill:#997cc9;opacity:0.87;stroke:#eeeeee;stroke-linejoin:miter;stroke-width:0.5;"/>
   </g>
   <g id="patch_5">
    <path clip-path="url(#pa56f00cd36)" d="M 303.054545 441 
L 384.218182 441 
L 384.218182 113.085409 
L 303.054545 113.085409 
z
" style="fill:#997cc9;opacity:0.87;stroke:#eeeeee;stroke-linejoin:miter;stroke-width:0.5;"/>
   </g>
   <g id="patch_6">
    <path clip-path="url(#pa56f00cd36)" d="M 404.509091 441 
L 485.672727 441 
L 485.672727 78.6 
L 404.509091 78.6 
z
" style="fill:#997cc9;opacity:0.87;stroke:#eeeeee;stroke-linejoin:miter;stroke-width:0.5;"/>
   </g>
   <g id="patch_7">
    <path clip-path="url(#pa56f00cd36)" d="M 505.963636 441 
L 587.127273 441 
L 587.127273 247.671987 
L 505.963636 247.671987 
z
" style="fill:#997cc9;opacity:0.87;stroke:#eeeeee;stroke-linejoin:miter;stroke-width:0.5;"/>
   </g>
   <g id="line2d_8">
    <path clip-path="url(#pa56f00cd36)" d="M 0 0 
" style="fill:none;stroke:#424242;stroke-linecap:round;stroke-width:2.7;"/>
   </g>
   <g id="line2d_9">
    <path clip-path="url(#pa56f00cd36)" d="M 0 0 
" style="fill:none;stroke:#424242;stroke-linecap:round;stroke-width:2.7;"/>
   </g>
   <g id="line2d_10">
    <path clip-path="url(#pa56f00cd36)" d="M 0 0 
" style="fill:none;stroke:#424242;stroke-linecap:round;stroke-width:2.7;"/>
   </g>
   <g id="line2d_11">
    <path clip-path="url(#pa56f00cd36)" d="M 0 0 
" style="fill:none;stroke:#424242;stroke-linecap:round;stroke-width:2.7;"/>
   </g>
   <g id="line2d_12">
    <path clip-path="url(#pa56f00cd36)" d="M 0 0 
" style="fill:none;stroke:#424242;stroke-linecap:round;stroke-width:2.7;"/>
   </g>
   <g id="patch_8">
    <path d="M 90 441 
L 90 60.48 
" style="fill:none;stroke:#ffffff;stroke-linecap:square;stroke-linejoin:miter;"/>
   </g>
   <g id="patch_9">
    <path d="M 648 441 
L 648 60.48 
" style="fill:none;stroke:#ffffff;stroke-linecap:square;stroke-linejoin:miter;"/>
   </g>
   <g id="patch_10">
    <path d="M 90 441 
L 648 441 
" style="fill:none;stroke:#ffffff;stroke-linecap:square;stroke-linejoin:miter;"/>
   </g>
   <g id="patch_11">
    <path d="M 90 60.48 
L 648 60.48 
" style="fill:none;stroke:#ffffff;stroke-linecap:square;stroke-linejoin:miter;"/>
   </g>
   <g id="text_15">
    <!-- Daily Traffic by 4 Hour Interval - Top 5 Stations -->
    <defs>
     <path d="M 7.234375 71.578125 
L 33.640625 71.578125 
Q 42.578125 71.578125 47.265625 70.21875 
Q 53.5625 68.359375 58.046875 63.625 
Q 62.546875 58.890625 64.890625 52.03125 
Q 67.234375 45.171875 67.234375 35.109375 
Q 67.234375 26.265625 65.046875 19.875 
Q 62.359375 12.0625 57.375 7.234375 
Q 53.609375 3.5625 47.21875 1.515625 
Q 42.4375 0 34.421875 0 
L 7.234375 0 
z
M 21.6875 59.46875 
L 21.6875 12.0625 
L 32.46875 12.0625 
Q 38.53125 12.0625 41.21875 12.75 
Q 44.734375 13.625 47.046875 15.71875 
Q 49.359375 17.828125 50.828125 22.625 
Q 52.296875 27.4375 52.296875 35.75 
Q 52.296875 44.046875 50.828125 48.484375 
Q 49.359375 52.9375 46.71875 55.421875 
Q 44.09375 57.90625 40.046875 58.796875 
Q 37.015625 59.46875 28.171875 59.46875 
z
" id="Arial-BoldMT-68"/>
     <path d="M 7.171875 0 
L 7.171875 71.578125 
L 20.90625 71.578125 
L 20.90625 0 
z
" id="Arial-BoldMT-108"/>
     <path d="M 0.6875 51.859375 
L 15.28125 51.859375 
L 27.6875 15.046875 
L 39.796875 51.859375 
L 54 51.859375 
L 35.6875 1.953125 
L 32.421875 -7.078125 
Q 30.609375 -11.625 28.96875 -14.015625 
Q 27.34375 -16.40625 25.21875 -17.890625 
Q 23.09375 -19.390625 19.984375 -20.21875 
Q 16.890625 -21.046875 12.984375 -21.046875 
Q 9.03125 -21.046875 5.21875 -20.21875 
L 4 -9.46875 
Q 7.234375 -10.109375 9.8125 -10.109375 
Q 14.59375 -10.109375 16.890625 -7.296875 
Q 19.1875 -4.5 20.40625 -0.140625 
z
" id="Arial-BoldMT-121"/>
     <path d="M 6.59375 0 
L 6.59375 71.578125 
L 20.3125 71.578125 
L 20.3125 45.796875 
Q 26.65625 53.03125 35.359375 53.03125 
Q 44.828125 53.03125 51.03125 46.171875 
Q 57.234375 39.3125 57.234375 26.46875 
Q 57.234375 13.1875 50.90625 6 
Q 44.578125 -1.171875 35.546875 -1.171875 
Q 31.109375 -1.171875 26.78125 1.046875 
Q 22.46875 3.265625 19.34375 7.625 
L 19.34375 0 
z
M 20.21875 27.046875 
Q 20.21875 19 22.75 15.140625 
Q 26.3125 9.671875 32.234375 9.671875 
Q 36.765625 9.671875 39.96875 13.546875 
Q 43.171875 17.4375 43.171875 25.78125 
Q 43.171875 34.671875 39.9375 38.59375 
Q 36.71875 42.53125 31.6875 42.53125 
Q 26.765625 42.53125 23.484375 38.6875 
Q 20.21875 34.859375 20.21875 27.046875 
z
" id="Arial-BoldMT-98"/>
     <path d="M 31.15625 0 
L 31.15625 14.40625 
L 1.859375 14.40625 
L 1.859375 26.421875 
L 32.90625 71.875 
L 44.4375 71.875 
L 44.4375 26.46875 
L 53.328125 26.46875 
L 53.328125 14.40625 
L 44.4375 14.40625 
L 44.4375 0 
z
M 31.15625 26.46875 
L 31.15625 50.921875 
L 14.703125 26.46875 
z
" id="Arial-BoldMT-52"/>
     <path d="M 6.84375 0 
L 6.84375 71.578125 
L 21.296875 71.578125 
L 21.296875 0 
z
" id="Arial-BoldMT-73"/>
     <path d="M 37.203125 16.5 
L 50.875 14.203125 
Q 48.25 6.6875 42.546875 2.75 
Q 36.859375 -1.171875 28.328125 -1.171875 
Q 14.796875 -1.171875 8.296875 7.671875 
Q 3.171875 14.75 3.171875 25.53125 
Q 3.171875 38.421875 9.90625 45.71875 
Q 16.65625 53.03125 26.953125 53.03125 
Q 38.53125 53.03125 45.21875 45.390625 
Q 51.90625 37.75 51.609375 21.96875 
L 17.234375 21.96875 
Q 17.390625 15.875 20.5625 12.46875 
Q 23.734375 9.078125 28.46875 9.078125 
Q 31.6875 9.078125 33.875 10.828125 
Q 36.078125 12.59375 37.203125 16.5 
z
M 37.984375 30.375 
Q 37.84375 36.328125 34.90625 39.421875 
Q 31.984375 42.53125 27.78125 42.53125 
Q 23.296875 42.53125 20.359375 39.265625 
Q 17.4375 35.984375 17.484375 30.375 
z
" id="Arial-BoldMT-101"/>
     <path d="M 21.4375 0 
L 0.53125 51.859375 
L 14.9375 51.859375 
L 24.703125 25.390625 
L 27.546875 16.546875 
Q 28.65625 19.921875 28.953125 21 
Q 29.640625 23.1875 30.421875 25.390625 
L 40.28125 51.859375 
L 54.390625 51.859375 
L 33.796875 0 
z
" id="Arial-BoldMT-118"/>
     <path d="M 5.609375 19.09375 
L 5.609375 32.8125 
L 32.5625 32.8125 
L 32.5625 19.09375 
z
" id="Arial-BoldMT-45"/>
     <path d="M 6.78125 51.859375 
L 19.578125 51.859375 
L 19.578125 44.234375 
Q 22.078125 48.140625 26.3125 50.578125 
Q 30.5625 53.03125 35.75 53.03125 
Q 44.78125 53.03125 51.078125 45.953125 
Q 57.375 38.875 57.375 26.21875 
Q 57.375 13.234375 51.015625 6.03125 
Q 44.671875 -1.171875 35.640625 -1.171875 
Q 31.34375 -1.171875 27.84375 0.53125 
Q 24.359375 2.25 20.515625 6.390625 
L 20.515625 -19.734375 
L 6.78125 -19.734375 
z
M 20.359375 26.8125 
Q 20.359375 18.0625 23.828125 13.890625 
Q 27.296875 9.71875 32.28125 9.71875 
Q 37.0625 9.71875 40.234375 13.546875 
Q 43.40625 17.390625 43.40625 26.125 
Q 43.40625 34.28125 40.125 38.234375 
Q 36.859375 42.1875 32.03125 42.1875 
Q 27 42.1875 23.671875 38.296875 
Q 20.359375 34.421875 20.359375 26.8125 
z
" id="Arial-BoldMT-112"/>
     <path d="M 4.4375 18.40625 
L 18.109375 19.828125 
Q 18.703125 15.1875 21.578125 12.46875 
Q 24.46875 9.765625 28.21875 9.765625 
Q 32.515625 9.765625 35.5 13.25 
Q 38.484375 16.75 38.484375 23.78125 
Q 38.484375 30.375 35.515625 33.671875 
Q 32.5625 36.96875 27.828125 36.96875 
Q 21.921875 36.96875 17.234375 31.734375 
L 6.109375 33.34375 
L 13.140625 70.609375 
L 49.421875 70.609375 
L 49.421875 57.765625 
L 23.53125 57.765625 
L 21.390625 45.609375 
Q 25.984375 47.90625 30.765625 47.90625 
Q 39.890625 47.90625 46.234375 41.265625 
Q 52.59375 34.625 52.59375 24.03125 
Q 52.59375 15.1875 47.46875 8.25 
Q 40.484375 -1.21875 28.078125 -1.21875 
Q 18.171875 -1.21875 11.921875 4.09375 
Q 5.671875 9.421875 4.4375 18.40625 
z
" id="Arial-BoldMT-53"/>
     <path d="M 3.609375 23.296875 
L 17.671875 24.65625 
Q 18.953125 17.578125 22.828125 14.25 
Q 26.703125 10.9375 33.296875 10.9375 
Q 40.28125 10.9375 43.8125 13.890625 
Q 47.359375 16.84375 47.359375 20.796875 
Q 47.359375 23.34375 45.875 25.125 
Q 44.390625 26.90625 40.671875 28.21875 
Q 38.140625 29.109375 29.109375 31.34375 
Q 17.484375 34.234375 12.796875 38.421875 
Q 6.203125 44.34375 6.203125 52.828125 
Q 6.203125 58.296875 9.296875 63.0625 
Q 12.40625 67.828125 18.234375 70.3125 
Q 24.078125 72.796875 32.328125 72.796875 
Q 45.796875 72.796875 52.609375 66.890625 
Q 59.421875 60.984375 59.765625 51.125 
L 45.3125 50.484375 
Q 44.390625 56 41.328125 58.421875 
Q 38.28125 60.84375 32.171875 60.84375 
Q 25.875 60.84375 22.3125 58.25 
Q 20.015625 56.59375 20.015625 53.8125 
Q 20.015625 51.265625 22.171875 49.46875 
Q 24.90625 47.171875 35.453125 44.671875 
Q 46 42.1875 51.046875 39.515625 
Q 56.109375 36.859375 58.953125 32.25 
Q 61.8125 27.640625 61.8125 20.84375 
Q 61.8125 14.703125 58.390625 9.328125 
Q 54.984375 3.953125 48.734375 1.34375 
Q 42.484375 -1.265625 33.15625 -1.265625 
Q 19.578125 -1.265625 12.296875 5 
Q 5.03125 11.28125 3.609375 23.296875 
z
" id="Arial-BoldMT-83"/>
     <path d="M 2.34375 14.796875 
L 16.109375 16.890625 
Q 17 12.890625 19.671875 10.8125 
Q 22.359375 8.734375 27.203125 8.734375 
Q 32.515625 8.734375 35.203125 10.6875 
Q 37.015625 12.0625 37.015625 14.359375 
Q 37.015625 15.921875 36.03125 16.9375 
Q 35.015625 17.921875 31.453125 18.75 
Q 14.84375 22.40625 10.40625 25.4375 
Q 4.25 29.640625 4.25 37.109375 
Q 4.25 43.84375 9.5625 48.4375 
Q 14.890625 53.03125 26.078125 53.03125 
Q 36.71875 53.03125 41.890625 49.5625 
Q 47.078125 46.09375 49.03125 39.3125 
L 36.078125 36.921875 
Q 35.25 39.9375 32.921875 41.546875 
Q 30.609375 43.171875 26.3125 43.171875 
Q 20.90625 43.171875 18.5625 41.65625 
Q 17 40.578125 17 38.875 
Q 17 37.40625 18.359375 36.375 
Q 20.21875 35.015625 31.171875 32.515625 
Q 42.140625 30.03125 46.484375 26.421875 
Q 50.78125 22.75 50.78125 16.21875 
Q 50.78125 9.078125 44.828125 3.953125 
Q 38.875 -1.171875 27.203125 -1.171875 
Q 16.609375 -1.171875 10.421875 3.125 
Q 4.25 7.421875 2.34375 14.796875 
z
" id="Arial-BoldMT-115"/>
    </defs>
    <g style="fill:#262626;" transform="translate(146.76875 54.48)scale(0.2 -0.2)">
     <use xlink:href="#Arial-BoldMT-68"/>
     <use x="72.216797" xlink:href="#Arial-BoldMT-97"/>
     <use x="127.832031" xlink:href="#Arial-BoldMT-105"/>
     <use x="155.615234" xlink:href="#Arial-BoldMT-108"/>
     <use x="183.398438" xlink:href="#Arial-BoldMT-121"/>
     <use x="239.013672" xlink:href="#Arial-BoldMT-32"/>
     <use x="266.796875" xlink:href="#Arial-BoldMT-84"/>
     <use x="327.802734" xlink:href="#Arial-BoldMT-114"/>
     <use x="366.71875" xlink:href="#Arial-BoldMT-97"/>
     <use x="422.333984" xlink:href="#Arial-BoldMT-102"/>
     <use x="455.634766" xlink:href="#Arial-BoldMT-102"/>
     <use x="488.935547" xlink:href="#Arial-BoldMT-105"/>
     <use x="516.71875" xlink:href="#Arial-BoldMT-99"/>
     <use x="572.333984" xlink:href="#Arial-BoldMT-32"/>
     <use x="600.117188" xlink:href="#Arial-BoldMT-98"/>
     <use x="661.201172" xlink:href="#Arial-BoldMT-121"/>
     <use x="716.816406" xlink:href="#Arial-BoldMT-32"/>
     <use x="744.599609" xlink:href="#Arial-BoldMT-52"/>
     <use x="800.214844" xlink:href="#Arial-BoldMT-32"/>
     <use x="827.998047" xlink:href="#Arial-BoldMT-72"/>
     <use x="900.214844" xlink:href="#Arial-BoldMT-111"/>
     <use x="961.298828" xlink:href="#Arial-BoldMT-117"/>
     <use x="1022.382812" xlink:href="#Arial-BoldMT-114"/>
     <use x="1061.298828" xlink:href="#Arial-BoldMT-32"/>
     <use x="1089.082031" xlink:href="#Arial-BoldMT-73"/>
     <use x="1116.865234" xlink:href="#Arial-BoldMT-110"/>
     <use x="1177.949219" xlink:href="#Arial-BoldMT-116"/>
     <use x="1211.25" xlink:href="#Arial-BoldMT-101"/>
     <use x="1266.865234" xlink:href="#Arial-BoldMT-114"/>
     <use x="1305.78125" xlink:href="#Arial-BoldMT-118"/>
     <use x="1361.396484" xlink:href="#Arial-BoldMT-97"/>
     <use x="1417.011719" xlink:href="#Arial-BoldMT-108"/>
     <use x="1444.794922" xlink:href="#Arial-BoldMT-32"/>
     <use x="1472.578125" xlink:href="#Arial-BoldMT-45"/>
     <use x="1505.878906" xlink:href="#Arial-BoldMT-32"/>
     <use x="1533.662109" xlink:href="#Arial-BoldMT-84"/>
     <use x="1594.636719" xlink:href="#Arial-BoldMT-111"/>
     <use x="1655.720703" xlink:href="#Arial-BoldMT-112"/>
     <use x="1716.804688" xlink:href="#Arial-BoldMT-32"/>
     <use x="1744.587891" xlink:href="#Arial-BoldMT-53"/>
     <use x="1800.203125" xlink:href="#Arial-BoldMT-32"/>
     <use x="1827.986328" xlink:href="#Arial-BoldMT-83"/>
     <use x="1894.685547" xlink:href="#Arial-BoldMT-116"/>
     <use x="1927.986328" xlink:href="#Arial-BoldMT-97"/>
     <use x="1983.601562" xlink:href="#Arial-BoldMT-116"/>
     <use x="2016.902344" xlink:href="#Arial-BoldMT-105"/>
     <use x="2044.685547" xlink:href="#Arial-BoldMT-111"/>
     <use x="2105.769531" xlink:href="#Arial-BoldMT-110"/>
     <use x="2166.853516" xlink:href="#Arial-BoldMT-115"/>
    </g>
   </g>
  </g>
 </g>
 <defs>
  <clipPath id="pa56f00cd36">
   <rect height="380.52" width="558" x="90" y="60.48"/>
  </clipPath>
 </defs>
</svg>
